<?xml version="1.0" encoding="utf-8"?>
<!-- Generator: Adobe Illustrator 19.2.1, SVG Export Plug-In . SVG Version: 6.00 Build 0)  -->
<svg version="1.1" id="layer" xmlns="http://www.w3.org/2000/svg" xmlns:xlink="http://www.w3.org/1999/xlink" x="0px" y="0px"
	 viewBox="0 0 652 652" style="enable-background:new 0 0 652 652;" xml:space="preserve">
<style type="text/css">
	.st0{fill:#FFC627;}
	.st1{fill:#56565A;}
</style>
<polygon class="st0" points="311.1,147.6 373.7,111.5 373.7,83.2 311.1,83.2 "/>
<g>
	<path class="st1" d="M256.8,363.9c-15.4,11.8-38.3,20-62.6,25c-20.9,4.3-42.8,6.3-62,6.3c-63.1,0-164.9-40.4-164.9-157.9
		c0-124.2,95.3-165.8,173-165.8c53.5,0,94.3,24.2,98.9,27.1l-6.3,25.8c-20.6-26.8-50.4-45.2-94.7-45.2c-24,0-43.7,8.5-56.8,18.8
		c-15.8,12.4-51.1,39.5-51.1,138.1c0,98.6,47,151,104.1,151c22.6,0,48.2-5.9,59.9-21.8v-89.5L165,292.8v-21.8l91.9-53.1v0V363.9z
		 M311.1,186.7l62.6-36.1v239h-62.6V186.7z M584.6,369.9c0,0-13.2,13.8-49.5,13.8h-44.5V228.6h42.4c0,0,25.6-0.3,39.6,8
		c0,0,20.5,10.4,27,39.3C599.5,275.8,612.6,343.1,584.6,369.9 M490.5,88.7h46.9c0,0,50.4-0.8,55.2,44.1c0,0,4.5,43.8-9.6,67
		c0,0-11.8,23-45.6,23h-46.9V88.7z M645.2,248.5c0,0-20.2-18.6-73.9-23.7c0,0,24-0.5,56-19.3c42.1-24.8,27.2-71.7,27.2-71.7
		C640,81.1,541.9,83.1,541.9,83.1h-51.4h-0.1l-62.5,36.1v270.3h121.3c0,0,99.1,3,120.4-59.6C669.7,330,687.8,281.4,645.2,248.5"/>
</g>
<rect x="-27.8" y="437.9" class="st0" width="696.5" height="4.6"/>
<g>
	<path class="st1" d="M12.7,567.4c0-1.1-0.4-2-1.2-2.8c-0.8-0.8-1.7-1.2-2.8-1.2c-1.1,0-2,0.4-2.8,1.2c-0.8,0.8-1.2,1.7-1.2,2.8
		c0,1.1,0.4,2,1.2,2.8c0.8,0.8,1.7,1.2,2.8,1.2c1.1,0,2-0.4,2.8-1.2C12.3,569.5,12.7,568.5,12.7,567.4"/>
	<path class="st1" d="M-0.4,564.7c-0.8-0.8-1.7-1.2-2.8-1.2s-2,0.4-2.8,1.2c-0.8,0.8-1.2,1.7-1.2,2.8s0.4,2,1.2,2.8
		c0.8,0.8,1.7,1.2,2.8,1.2s2-0.4,2.8-1.2c0.8-0.8,1.2-1.7,1.2-2.8S0.4,565.4-0.4,564.7"/>
	<path class="st1" d="M22.4,528.5c-1.8-0.2-3.6-0.5-5.4-0.9c-1.8-0.4-3.6-0.8-5.4-1.3c-1.7-0.5-3.4-1-5-1.5l-0.1,0v5.7l2.7,0.7
		c1.8,0.5,3.8,1.1,5.9,1.8c2.1,0.7,4,1.5,5.7,2.3c1.7,0.9,3.2,1.9,4.3,2.9c1.1,1.1,1.7,2.2,1.7,3.5c0,1.5-0.6,2.8-1.9,3.9
		c-1.3,1.1-3,2-5.2,2.8c-2.2,0.7-4.8,1.3-7.7,1.6c-2.9,0.3-6,0.5-9.3,0.5c-8.7,0-15.1-1.4-19-4c-3.9-2.7-5.9-6.9-5.9-12.7v-11.9
		h-5.5v13.3c0,3,0.5,5.8,1.4,8.4c0.9,2.6,2.5,4.8,4.8,6.7c2.3,1.9,5.4,3.4,9.3,4.5c3.9,1.1,8.8,1.6,14.8,1.6c5.4,0,10-0.4,13.7-1.2
		c3.7-0.8,6.8-1.8,9.1-3.1c2.3-1.3,4-2.7,5-4.4c1-1.7,1.5-3.4,1.5-5.2c0-1.1-0.3-2.4-0.8-3.8c-0.5-1.3-1.4-2.5-2.6-3.7l-0.3-0.3
		h51.5v-49.5h-5.7v43.7H27.4C25.9,528.8,24.2,528.7,22.4,528.5"/>
	<path class="st1" d="M117.5,525.5L117.5,525.5c-1.1,0.9-2.6,1.7-4.5,2.4c-1.9,0.8-4.2,1.1-6.7,1.1c-3.3,0-6-0.8-8.1-2.4
		c-2-1.6-3.1-4.4-3.1-8.2c0-1.3,0.2-2.7,0.6-4.2c0.4-1.5,1.1-2.8,2-4c0.9-1.2,2.1-2.2,3.5-3c1.4-0.8,3.2-1.2,5.2-1.2
		c2,0,3.8,0.4,5.1,1.2c1.4,0.8,2.5,1.9,3.4,3.3c0.9,1.4,1.5,3.1,1.9,5c0.4,1.9,0.6,4.1,0.6,6.3V525.5z M119.7,507
		c-1.3-2-3-3.6-5.1-4.8c-2.1-1.2-4.7-1.7-7.8-1.7c-2.8,0-5.2,0.5-7.4,1.6c-2.1,1.1-4,2.5-5.4,4.3c-1.5,1.8-2.6,3.8-3.3,6
		c-0.7,2.2-1.1,4.5-1.1,6.8c0,2.9,0.4,5.3,1.2,7.3c0.8,1.9,2,3.5,3.4,4.8c1.4,1.2,3.1,2.1,5,2.6c1.9,0.5,4,0.8,6.2,0.8
		c2.6,0,4.9-0.3,6.9-1c1.8-0.6,3.4-1.3,4.8-2.1l0.3-0.2v3.3c0,2.9-0.5,5.2-1.5,6.9c-1,1.7-2.5,3.1-4.3,4.1c-1.8,1-4,1.6-6.6,2
		c-2.5,0.3-5.4,0.5-8.5,0.5h-1.8v5.8h2.1c4.2,0,8-0.3,11.2-1c3.2-0.7,6-1.9,8.3-3.5c2.2-1.6,4-3.9,5.1-6.6c1.2-2.8,1.8-6.3,1.8-10.5
		v-8.6c0-3.3-0.3-6.5-0.8-9.3C121.9,511.5,121,509.1,119.7,507"/>
	<path class="st1" d="M164.7,525.5c-1.7-2.2-3.6-5.1-5.8-8.7l-10.6-17.5l-5.5,3.5l8.6,12.6c1,1.6,1.9,3,2.4,4.4
		c0.5,1.3,0.8,2.7,0.8,4c0,1.5-0.6,2.7-1.8,3.6c-1.2,0.9-3.3,1.4-6.3,1.4H131v5.8h13c1.8,0,3.6-0.1,5.2-0.2c1.6-0.1,3.1-0.5,4.4-1
		c1.3-0.6,2.4-1.4,3.3-2.5c0.8-1,1.4-2.4,1.7-4l0.1-0.4l0.2,0.4c1.7,2.7,3.4,4.7,5,5.9c1.7,1.3,3.7,2,5.9,2H191v-49.5h-5.7v43.7
		h-15.4C168.1,528.8,166.3,527.7,164.7,525.5"/>
</g>
<rect x="203.1" y="485.1" class="st1" width="5.7" height="49.5"/>
<g>
	<path class="st1" d="M255.4,547.5c-0.8-0.8-1.7-1.2-2.8-1.2c-1.1,0-2,0.4-2.8,1.2c-0.8,0.8-1.2,1.7-1.2,2.8s0.4,2,1.2,2.8
		c0.8,0.8,1.7,1.2,2.8,1.2c1.1,0,2-0.4,2.8-1.2c0.8-0.8,1.2-1.7,1.2-2.8S256.2,548.3,255.4,547.5"/>
	<path class="st1" d="M347.9,543.7c-0.8-0.8-1.7-1.2-2.8-1.2c-1.1,0-2,0.4-2.8,1.2c-0.8,0.8-1.2,1.7-1.2,2.8c0,1.1,0.4,2,1.2,2.8
		c0.8,0.8,1.7,1.2,2.8,1.2s2-0.4,2.8-1.2c0.8-0.8,1.2-1.7,1.2-2.8C349,545.4,348.6,544.4,347.9,543.7"/>
	<path class="st1" d="M335.9,543.7c-0.8-0.8-1.7-1.2-2.8-1.2c-1.1,0-2,0.4-2.8,1.2c-0.8,0.8-1.2,1.7-1.2,2.8c0,1.1,0.4,2,1.2,2.8
		c0.8,0.8,1.7,1.2,2.8,1.2c1.1,0,2-0.4,2.8-1.2c0.8-0.8,1.2-1.7,1.2-2.8C337.1,545.4,336.7,544.4,335.9,543.7"/>
	<path class="st1" d="M406.2,487.5c0.7,0.8,1.7,1.2,2.7,1.2c1.1,0,2-0.4,2.8-1.2c0.8-0.8,1.2-1.7,1.2-2.8s-0.4-2-1.2-2.8
		c-0.8-0.7-1.8-1.1-2.8-1.1c-1.1,0-2,0.4-2.7,1.1c-0.7,0.8-1.1,1.7-1.1,2.8C405.1,485.7,405.4,486.7,406.2,487.5"/>
	<path class="st1" d="M434.1,528.7c0-3.8-0.5-7.5-1.5-11c-1-3.6-2.5-6.7-4.6-9.3c-2.1-2.6-4.7-4.8-8-6.3c-3.2-1.6-7.1-2.3-11.6-2.3
		c-2.1,0-4,0.2-5.9,0.6c-1.9,0.4-3.4,0.8-4.6,1.1l-0.1,0v5.5l0.1,0c1.4-0.3,2.9-0.6,4.6-0.8c4.8-0.7,9-0.4,12.9,0.9
		c2.5,0.8,4.7,2.2,6.5,4c1.8,1.8,3.3,4.3,4.4,7.2c1.1,2.9,1.6,6.5,1.6,10.6v0.2H379c-3.1,0-5.2-1-6.3-3c-1.1-2-1.7-4.7-1.7-8.2
		v-32.6h-5.7v36.6c0,1.7-0.3,3.1-0.8,4.1c-0.5,0.9-1.2,1.6-2.1,2.1c-0.9,0.4-1.9,0.7-3,0.8c-1.1,0.1-2.3,0.1-3.5,0.1h-5.6
		c-3.1,0-5.2-1-6.3-3c-1.1-2-1.7-4.7-1.7-8.2V501h-5.7v20.8c0,1.7-0.3,3.1-0.8,4.1c-0.5,0.9-1.2,1.6-2.1,2.1c-0.9,0.4-1.9,0.7-3,0.8
		c-1.1,0.1-2.3,0.1-3.6,0.1h-49.9l0-0.2c0-3.8-0.5-7.5-1.5-11c-1-3.6-2.5-6.7-4.6-9.3c-2.1-2.6-4.8-4.8-8-6.3
		c-3.2-1.6-7.1-2.3-11.6-2.3c-2.1,0-4,0.2-5.9,0.6c-1.9,0.4-3.4,0.8-4.6,1.1l-0.1,0v5.5l0.1,0c1.4-0.3,2.9-0.6,4.6-0.8
		c4.8-0.7,9.2-0.4,12.9,0.9c2.5,0.8,4.7,2.2,6.5,4c1.9,1.8,3.3,4.3,4.4,7.2c1.1,2.9,1.6,6.5,1.6,10.6v0.2h-20.6
		c-2.8,0-5.7,0.3-8.6,1c-2.9,0.7-5.5,1.8-7.9,3.4c-2.3,1.6-4.2,3.8-5.7,6.6c-1.5,2.8-2.2,6.3-2.2,10.5c0,3.5,0.6,6.6,1.9,9.2
		c1.2,2.6,3,4.9,5.2,6.6c2.2,1.8,4.9,3.1,8,4c3.1,0.9,6.6,1.4,10.3,1.4c0.9,0,2-0.1,3.5-0.2c1.4-0.1,3-0.4,4.7-0.7
		c1.7-0.4,3.5-0.8,5.3-1.5c1.8-0.6,3.5-1.4,5.1-2.4l0.1,0l-2.4-4.6l-0.1,0c-3.3,1.5-6.3,2.5-8.9,2.9c-5.9,0.9-10.8,0.8-14.9-0.3
		c-2.3-0.6-4.3-1.6-6-2.9c-1.7-1.3-3.1-2.9-4.1-4.9c-1-2-1.5-4.4-1.5-7.2c0-3,0.6-5.5,1.7-7.5c1.1-1.9,2.6-3.4,4.4-4.5
		c1.8-1.1,3.7-1.9,5.9-2.3c2.1-0.4,4.2-0.6,6.2-0.6h77.5c1.7,0,3.1-0.1,4.4-0.2c1.3-0.2,2.5-0.4,3.5-0.8c1-0.4,2-0.9,2.8-1.6
		c0.7-0.6,1.4-1.3,2-2.2l0.2-0.2l0.1,0.3c0.8,1.7,2,3,3.6,3.7c1.6,0.7,3.4,1.1,5.4,1.1c0.1,0,0.1,0,0.1,0h6.6c1.6,0,3.1-0.1,4.4-0.2
		c1.3-0.2,2.5-0.4,3.5-0.8c1-0.4,2-0.9,2.8-1.6c0.7-0.6,1.4-1.3,2-2.2l0.2-0.2l0.1,0.3c0.8,1.7,2,3,3.6,3.7c1.6,0.7,3.5,1.1,5.5,1.1
		l81.4,0v-49.5h-5.7v43.7h-20.5V528.7z"/>
</g>
<rect x="472.4" y="485.1" class="st1" width="5.7" height="49.5"/>
<g>
	<path class="st1" d="M542.5,506.4c-1.1-0.9-1.6-2.1-1.6-3.7c0-1,0.3-2,1-2.9c0.7-0.9,2-1.4,3.9-1.4c0.5,0,0.9,0,1.4,0.1
		c0.5,0.1,1,0.2,1.7,0.3l0.1,0v-3.7l-0.1,0c-0.4-0.1-0.9-0.2-1.6-0.3c-0.6-0.1-1.3-0.1-1.9-0.1c-2.1,0-3.9,0.7-5.5,2
		c-1.6,1.3-2.4,3.3-2.4,5.8c0,1.8,0.6,3.4,1.8,4.9l0.2,0.3h-4.1v3.4h15.2v-3.4h-3.5C545.2,507.7,543.6,507.3,542.5,506.4"/>
	<path class="st1" d="M633.7,487.4c0.7,0.8,1.7,1.2,2.7,1.2c1.1,0,2-0.4,2.8-1.2c0.8-0.8,1.2-1.7,1.2-2.8c0-1.1-0.4-2-1.2-2.8
		c-0.8-0.7-1.8-1.1-2.8-1.1c-1.1,0-2,0.4-2.7,1.1c-0.7,0.8-1.1,1.7-1.1,2.8S632.9,486.6,633.7,487.4"/>
	<path class="st1" d="M662.1,528.8h-14.9c-3.1,0-5.2-1-6.3-3c-1.1-2-1.7-4.7-1.7-8.2V501h-5.7v20.8c0,1.7-0.3,3.1-0.8,4.1
		c-0.5,0.9-1.2,1.6-2.1,2.1c-0.9,0.4-1.9,0.7-3,0.8c-1.1,0.1-2.3,0.1-3.6,0.1h-41.2c-1.6,0-2.9-0.3-3.9-0.8s-1.9-1.3-2.5-2.2
		c-0.6-1-1-2.1-1.3-3.5c-0.3-1.4-0.4-2.9-0.4-4.6v-32.6h-5.6v36.6c0,1.7-0.3,3.1-0.8,4.1c-0.5,1-1.2,1.7-2.1,2.1
		c-0.9,0.4-1.9,0.7-3,0.8c-1.1,0.1-2.3,0.1-3.6,0.1h-33.7c-3.1,0-5.7-0.1-7.7-0.3c-2-0.2-3.7-0.6-4.9-1.3c-1.2-0.6-2-1.6-2.5-2.9
		c-0.5-1.3-0.7-3-0.7-5.1v-10.6h-5.6V522c0,2.3,0.3,4.3,0.9,5.9c0.6,1.6,1.6,2.9,2.9,3.9c1.3,1,3.2,1.7,5.4,2.2
		c2.2,0.4,5.1,0.7,8.4,0.7h38.2c3.3,0,5.9-0.3,7.9-1c1.8-0.6,3.4-1.9,4.8-3.9l0.2-0.2l0.1,0.3c0.8,1.7,2,3,3.6,3.7
		c1.7,0.8,3.6,1.2,5.7,1.2h42c1.6,0,3.1-0.1,4.4-0.2c1.3-0.2,2.5-0.4,3.5-0.8c1-0.4,2-0.9,2.8-1.6c0.7-0.6,1.4-1.3,2-2.2l0.2-0.2
		l0.1,0.3c0.8,1.7,2.1,3,3.6,3.7c1.6,0.7,3.4,1.1,5.4,1.1c0.1,0,0.1,0,0.1,0h20.8V501h-5.7V528.8z"/>
	<path class="st1" d="M667.4,543.5c-0.8-0.8-1.7-1.2-2.8-1.2c-1.1,0-2,0.4-2.8,1.2c-0.8,0.8-1.2,1.7-1.2,2.8s0.4,2,1.2,2.8
		c0.8,0.8,1.7,1.2,2.8,1.2c1.1,0,2-0.4,2.8-1.2c0.8-0.8,1.2-1.7,1.2-2.8S668.2,544.3,667.4,543.5"/>
</g>
</svg>
