<?xml version="1.0" standalone="no"?>
<!DOCTYPE svg PUBLIC "-//W3C//DTD SVG 20010904//EN"
 "http://www.w3.org/TR/2001/REC-SVG-20010904/DTD/svg10.dtd">
<svg version="1.0" xmlns="http://www.w3.org/2000/svg"
 width="848.000000pt" height="847.000000pt" viewBox="0 0 848.000000 847.000000"
 preserveAspectRatio="xMidYMid meet">

<g transform="translate(0.000000,847.000000) scale(0.100000,-0.100000)"
fill="#000000" stroke="none">
<path d="M7540 8203 c-91 -86 -338 -321 -550 -522 -212 -201 -407 -388 -435
-414 -27 -27 178 122 457 332 279 210 510 381 514 381 3 0 4 -163 1 -362 -4
-325 -6 -373 -26 -460 -109 -491 -413 -920 -869 -1228 l-51 -35 -1 -112 0
-113 216 0 c193 0 215 -2 210 -16 -3 -9 -6 -49 -6 -90 l0 -74 -249 0 c-137 0
-263 3 -280 6 l-31 7 0 158 0 159 -75 0 -75 0 0 -160 0 -160 -65 0 -65 0 0
160 0 160 -74 0 -73 0 -7 -52 c-3 -29 -6 -101 -6 -160 l0 -108 -60 0 -60 0 2
560 c2 308 2 560 0 560 -6 0 -1313 -1242 -1310 -1245 2 -2 653 -8 1448 -14
795 -6 1493 -13 1553 -14 l107 -2 0 259 0 260 -49 47 c-76 73 -204 106 -264
66 l-27 -17 0 -235 0 -235 -97 0 -98 0 0 123 c0 97 -4 129 -18 154 -31 58 -57
67 -201 73 l-129 5 104 76 c149 110 273 223 359 327 210 258 338 524 406 844
24 117 26 145 35 593 5 259 8 516 7 572 l-3 103 -165 -157z m-1805 -2318 l-8
-387 -396 7 c-218 4 -397 8 -398 9 0 0 180 173 400 383 221 209 404 380 406
378 1 -2 0 -178 -4 -390z m1808 -107 l27 -19 0 -135 0 -134 -50 0 -50 0 0 153
c0 85 3 156 6 160 8 8 33 -2 67 -25z"/>
<path d="M776 7385 c-4 -493 -6 -898 -4 -901 6 -5 3617 -38 3622 -33 2 2 7
406 11 897 l8 892 -92 0 -91 0 0 -130 0 -130 -79 0 -79 0 -7 -87 -8 -86 -606
6 c-333 4 -984 9 -1446 13 -462 3 -850 7 -862 10 -22 4 -23 9 -23 89 l0 85
-75 0 -75 0 0 130 0 130 -79 0 c-44 0 -86 2 -94 5 -12 5 -15 -119 -21 -890z"/>
<path d="M6220 6804 l0 -86 -80 4 -80 3 0 -102 0 -103 85 0 84 0 3 83 3 82 76
3 76 3 7 90 c4 49 4 94 1 99 -3 6 -44 10 -91 10 l-84 0 0 -86z"/>
<path d="M770 6288 c0 -29 -9 -1045 -20 -2257 -11 -1212 -19 -2206 -17 -2208
2 -2 122 116 265 262 l262 264 0 293 c0 161 3 344 7 406 l6 113 157 -7 158 -7
7 222 8 221 138 0 139 0 0 168 c0 92 3 197 7 235 l6 67 133 0 134 0 0 324 c0
179 3 327 7 329 5 3 221 2 482 -2 l473 -6 -1 -304 -2 -304 363 349 c199 192
484 466 633 610 l270 261 5 491 c3 271 3 492 0 492 -2 0 -28 -23 -57 -52 l-53
-52 -52 51 -53 52 -65 -59 -65 -59 -56 62 -56 61 -62 -59 -62 -59 -57 57 c-32
31 -61 57 -66 57 -5 0 -37 -25 -71 -55 l-63 -55 -50 59 -50 60 -63 -55 c-34
-29 -67 -54 -71 -54 -5 0 -36 25 -68 56 l-59 56 -71 -58 -71 -57 -53 58 -53
59 -63 -57 -64 -57 -60 59 -61 60 -60 -54 c-33 -30 -65 -54 -71 -55 -6 0 -35
25 -63 55 l-52 55 -65 -57 -65 -57 -53 59 -52 59 -70 -56 -69 -56 -63 60 -63
61 -50 -57 c-28 -31 -56 -56 -62 -56 -7 0 -35 25 -63 57 l-51 57 -69 -57 c-37
-31 -71 -57 -74 -57 -3 0 -23 23 -44 50 -21 28 -42 53 -47 56 -5 3 -42 -20
-81 -51 l-72 -55 -57 56 -57 57 -39 -30 c-21 -17 -47 -40 -57 -52 -24 -26 -41
-27 -58 -3 -7 11 -28 36 -47 58 l-34 38 -54 -59 -53 -60 -55 58 -55 58 0 -53z
m438 -391 c29 -56 52 -105 52 -109 0 -5 -49 -8 -110 -8 -60 0 -110 3 -110 8 0
11 104 212 110 212 3 0 29 -46 58 -103z m239 -115 c-60 -1 -112 -1 -114 2 -5
4 43 103 85 174 l25 43 57 -108 57 -108 -110 -3z m347 103 c31 -57 56 -107 56
-110 0 -3 -52 -5 -115 -5 -63 0 -115 2 -115 4 0 7 111 216 115 216 2 0 28 -47
59 -105z m1681 -15 l55 -110 -115 0 c-63 0 -115 3 -115 6 0 6 114 213 117 214
2 0 28 -49 58 -110z m632 -106 c-2 -3 -54 -3 -115 -2 l-110 3 61 109 60 109
54 -108 c30 -59 52 -109 50 -111z m-337 105 c28 -55 50 -103 47 -105 -2 -3
-54 -3 -116 -2 l-111 3 57 103 c32 56 61 102 64 102 4 0 30 -45 59 -101z
m-2566 -344 c31 -57 56 -107 56 -110 0 -3 -52 -5 -116 -5 l-115 0 57 110 c31
61 58 110 60 110 1 0 27 -47 58 -105z m290 -1 c31 -58 56 -107 56 -110 0 -2
-51 -4 -113 -4 l-113 0 55 110 c31 60 57 110 58 110 1 0 26 -47 57 -106z
m2266 -24 c27 -55 50 -102 50 -105 0 -3 -49 -5 -110 -5 -60 0 -110 2 -110 5 0
8 111 205 116 205 2 0 26 -45 54 -100z m298 -5 c28 -58 52 -107 52 -110 0 -8
-204 -5 -217 3 -8 5 5 38 45 110 31 56 59 102 62 102 3 0 29 -47 58 -105z
m-2854 -327 l56 -108 -115 0 -115 0 56 111 c30 61 56 110 58 108 1 -2 28 -52
60 -111z m2882 -124 c-4 -11 -29 -14 -106 -14 -59 0 -100 4 -100 10 0 5 26 55
57 111 l56 102 49 -98 c27 -53 47 -103 44 -111z m-2759 -376 c-4 -95 -7 -345
-7 -555 l0 -383 -152 0 -151 0 6 353 c4 193 7 443 7 555 l0 202 152 0 151 0
-6 -172z"/>
<path d="M6078 6256 l-47 -52 57 -57 58 -57 52 53 52 53 -58 57 c-32 31 -60
57 -62 56 -3 -1 -26 -25 -52 -53z"/>
<path d="M6317 6256 l-48 -56 19 -27 c11 -16 35 -43 54 -60 l34 -33 52 53 52
53 -58 63 -57 64 -48 -57z"/>
<path d="M5852 5177 l-52 -53 58 -57 58 -57 52 53 52 53 -58 57 -58 57 -52
-53z"/>
<path d="M6108 4788 l-3 -433 -545 3 c-300 1 -672 5 -827 9 l-283 6 0 -86 0
-85 233 -6 c127 -3 563 -8 967 -11 404 -3 959 -8 1233 -12 l497 -6 0 289 c0
159 3 353 7 432 l6 142 70 0 69 0 -7 -435 -8 -435 75 0 75 0 5 467 c6 506 5
520 -45 557 -26 19 -44 21 -216 24 l-188 3 -6 -317 c-4 -175 -7 -371 -7 -436
l0 -118 -65 0 -65 0 -2 238 -3 239 -64 -13 c-83 -17 -163 -56 -207 -102 -61
-63 -68 -84 -72 -224 l-4 -128 -60 0 -60 0 3 433 4 432 -71 3 -71 3 -6 -122
c-4 -67 -7 -263 -7 -436 l0 -313 -95 0 -95 0 0 435 0 435 -80 0 -80 0 -2 -432z
m822 -318 l0 -130 -30 0 -30 0 0 90 c0 95 20 170 46 170 11 0 14 -26 14 -130z"/>
<path d="M4287 5112 l-87 -87 -11 -1180 c-6 -649 -9 -1212 -7 -1251 l3 -72
550 149 c303 81 557 148 567 149 9 0 63 -27 120 -59 56 -32 328 -187 604 -344
l500 -285 75 13 c41 7 75 12 75 12 1 -1 19 -37 41 -80 l39 -79 285 -159 284
-159 6 182 c4 101 7 348 8 551 l1 367 71 0 71 0 -8 -594 -7 -594 90 -46 90
-45 5 667 c4 471 2 677 -6 701 -6 19 -24 44 -39 55 -26 19 -44 21 -238 24
l-209 3 0 -418 c0 -230 -3 -442 -6 -470 l-7 -53 -96 52 c-133 71 -144 80 -184
148 l-36 60 105 120 c57 67 104 124 104 127 0 6 -151 344 -157 352 -3 5 -383
-138 -396 -149 -4 -3 15 -91 42 -196 27 -104 49 -190 47 -191 -1 -1 -278 155
-615 347 -338 193 -617 350 -621 350 -5 0 -225 -59 -490 -131 -265 -72 -483
-129 -484 -127 -2 2 1 399 5 883 14 1410 14 1545 9 1545 -3 0 -45 -39 -93 -88z
m2543 -2522 l23 -61 -54 -55 c-29 -30 -56 -54 -60 -54 -7 0 -63 190 -57 194 9
9 114 43 119 40 4 -2 17 -31 29 -64z"/>
<path d="M5280 5099 c-100 -30 -139 -98 -140 -243 l0 -98 -170 3 -170 4 0 -76
0 -76 338 -6 c185 -4 401 -7 480 -7 l142 0 0 80 0 80 -215 0 -215 0 0 23 c0
44 22 101 50 129 l28 28 151 0 151 0 0 80 0 80 -169 0 c-93 0 -181 2 -197 4
-16 3 -45 0 -64 -5z"/>
<path d="M3567 4412 l-198 -187 198 -6 c109 -4 278 -7 376 -8 l177 -1 0 80 0
80 -160 0 c-88 0 -160 4 -160 8 0 4 27 44 61 87 34 44 70 92 81 108 l19 27
-98 0 -98 -1 -198 -187z"/>
<path d="M6086 4059 c-3 -17 -6 -184 -6 -370 l0 -339 -103 0 -104 0 -17 42
-16 42 75 113 c41 62 76 117 77 121 2 5 -56 82 -129 170 l-131 162 -144 -156
c-79 -86 -142 -160 -140 -166 1 -5 32 -61 68 -123 l65 -114 -27 -40 -27 -41
-121 0 -121 0 -12 51 c-12 48 -54 119 -71 119 -5 0 -28 -20 -52 -45 l-44 -45
17 -35 c39 -82 31 -162 -25 -229 -35 -42 -97 -75 -142 -76 -23 0 -26 -3 -17
-14 19 -23 96 -39 148 -31 61 9 151 59 172 96 l16 29 182 0 183 0 36 55 c20
30 40 55 43 55 3 0 22 -25 41 -55 l35 -55 180 0 c99 0 197 -3 217 -6 l38 -7 2
384 3 384 29 3 c15 2 39 1 52 -2 l24 -6 -7 -380 -6 -380 65 0 66 0 7 183 c4
100 5 296 3 435 l-3 254 -28 24 c-27 23 -34 24 -186 24 l-158 0 -7 -31z m-306
-400 c6 -11 -1 -27 -28 -58 l-37 -42 -28 45 -28 45 33 41 33 42 23 -29 c13
-15 27 -35 32 -44z"/>
<path d="M5137 3862 c-26 -26 -47 -52 -47 -58 0 -5 25 -34 55 -64 l55 -55 53
53 52 52 -60 60 -60 60 -48 -48z"/>
<path d="M2906 3791 l-49 -49 21 -29 c11 -15 34 -41 51 -58 l31 -29 55 54 55
54 -52 53 c-29 29 -55 53 -58 53 -3 0 -28 -22 -54 -49z"/>
<path d="M7382 3780 c-54 -33 -62 -67 -62 -265 l0 -175 -55 0 -55 0 0 115 0
115 -75 0 -75 0 0 -115 0 -116 -62 3 -63 3 4 166 c3 150 1 170 -17 212 -14 31
-30 51 -47 57 -15 6 -79 10 -144 10 l-118 0 -7 -61 c-12 -119 -20 -109 94
-109 l100 0 0 -140 0 -140 -100 0 -100 0 0 -83 0 -84 353 -6 c193 -4 432 -7
530 -7 l177 0 0 85 0 85 -77 0 c-43 0 -84 4 -91 8 -9 7 -12 42 -10 143 l3 134
88 3 87 3 0 67 c0 37 3 77 6 90 6 22 6 22 -122 22 -112 0 -133 -3 -162 -20z"/>
<path d="M4830 3507 l0 -148 -192 1 -193 2 -3 -86 -3 -86 250 0 c137 0 256 -3
265 -6 14 -5 16 19 16 229 l0 235 -70 4 -70 3 0 -148z"/>
<path d="M2753 3447 l-50 -63 24 -29 c90 -111 88 -208 -7 -272 -40 -27 -125
-31 -189 -8 -22 8 -41 11 -41 7 0 -4 16 -28 34 -53 81 -111 242 -131 344 -43
46 39 68 81 84 159 l11 56 573 -3 573 -3 3 83 c2 46 1 86 -1 88 -2 2 -212 4
-466 4 -254 0 -523 3 -598 7 -128 6 -136 7 -146 29 -11 26 -80 104 -90 104 -4
0 -30 -28 -58 -63z"/>
<path d="M6900 3039 l-54 -49 59 -60 59 -60 53 52 52 51 -51 56 c-28 31 -53
57 -57 58 -3 1 -31 -20 -61 -48z"/>
<path d="M2160 3000 l0 -80 -80 0 -80 0 0 -100 0 -100 85 0 85 0 0 80 0 80 79
0 80 0 3 100 3 100 -87 0 -88 0 0 -80z"/>
<path d="M3698 3011 l-53 -50 60 -60 60 -61 55 55 55 55 -55 55 c-30 30 -58
55 -61 55 -4 0 -32 -22 -61 -49z"/>
<path d="M3936 3011 c-55 -56 -55 -60 16 -128 l44 -43 51 53 52 52 -55 58
c-31 31 -57 57 -58 57 -1 0 -23 -22 -50 -49z"/>
<path d="M3490 2880 c-278 -106 -346 -184 -385 -440 l-5 -36 -443 -112 c-244
-62 -446 -112 -451 -112 -4 0 -5 71 -1 158 6 140 4 161 -12 192 -33 64 -59 70
-314 70 l-226 0 -459 -440 c-482 -462 -479 -458 -472 -539 l3 -38 1430 387
1430 386 3 142 c1 78 1 204 0 280 l-3 138 -95 -36z m-42 -297 l-3 -87 -78 -19
c-43 -11 -80 -17 -83 -14 -9 9 24 99 50 138 23 34 75 68 104 69 10 0 12 -21
10 -87z m-1450 -315 l-3 -142 -340 -93 c-187 -51 -355 -95 -373 -99 -29 -6 -1
26 214 235 l248 241 128 0 129 0 -3 -142z"/>
<path d="M1370 1190 l0 -210 295 0 295 0 5 23 c3 12 4 107 3 210 l-3 189 -27
-22 -27 -21 -3 -152 -3 -152 -50 -3 c-27 -1 -81 1 -120 5 -67 8 -70 9 -73 36
l-4 29 56 -4 56 -3 0 41 0 41 -52 -4 c-128 -10 -145 -22 -133 -94 l7 -39 -81
0 -81 0 0 150 c0 137 -2 152 -20 170 -11 11 -24 20 -30 20 -6 0 -10 -77 -10
-210z"/>
<path d="M2062 1393 c-34 -13 -42 -59 -42 -238 l0 -175 30 0 30 0 0 210 c0
116 -1 210 -2 209 -2 0 -9 -3 -16 -6z"/>
<path d="M3493 1366 l-28 -24 -3 -186 -3 -186 35 0 36 0 0 210 c0 116 -2 210
-4 210 -3 0 -18 -11 -33 -24z"/>
<path d="M3370 1360 c-18 -18 -20 -33 -20 -170 l0 -150 -120 0 c-108 0 -120 2
-130 19 -18 36 -12 41 50 41 l60 0 0 45 c0 42 -2 45 -19 35 -11 -5 -44 -10
-73 -10 -33 0 -62 -6 -77 -16 -21 -15 -23 -22 -17 -65 l7 -49 -86 0 -85 0 0
35 c0 40 -1 40 -39 20 -36 -18 -41 -32 -41 -106 l0 -59 -35 0 c-24 0 -35 -5
-35 -15 0 -25 38 -55 69 -55 37 0 57 20 73 71 l12 40 261 -2 c144 -1 267 1
273 5 15 9 17 406 2 406 -5 0 -19 -9 -30 -20z"/>
<path d="M5278 1348 l-28 -27 0 -151 0 -151 -62 3 -63 3 -3 50 c-4 66 -17 75
-116 75 -108 0 -122 10 -65 45 24 15 63 39 86 54 71 44 48 42 -49 -3 -207 -96
-240 -118 -222 -147 3 -5 58 -9 123 -9 162 0 181 -5 181 -42 l0 -30 -167 7
c-184 7 -196 4 -209 -47 l-6 -28 258 0 c143 0 344 -3 447 -7 l188 -6 14 -33
c21 -50 77 -70 127 -43 41 22 48 65 48 289 0 115 -4 210 -8 210 -5 0 -17 -9
-29 -19 -18 -17 -20 -35 -26 -216 -6 -204 -12 -230 -45 -209 -14 9 -17 30 -20
128 -1 64 -5 116 -8 116 -17 0 -145 -43 -159 -54 -9 -6 -20 -28 -24 -46 -7
-35 -7 -35 -69 -38 l-62 -3 -2 178 -3 178 -27 -27z m282 -298 c0 -27 -3 -30
-30 -30 -34 0 -38 14 -13 42 25 27 43 22 43 -12z"/>
<path d="M743 1344 c-3 -8 2 -23 11 -32 15 -15 17 -15 32 0 21 21 11 48 -16
48 -11 0 -23 -7 -27 -16z"/>
<path d="M863 1353 c-18 -7 -16 -28 3 -43 12 -11 18 -10 31 3 28 27 4 56 -34
40z"/>
<path d="M5831 1334 c-20 -25 -21 -40 -21 -210 l0 -184 30 0 30 0 0 210 c0
122 -4 210 -9 210 -5 0 -19 -12 -30 -26z"/>
<path d="M6082 1308 c-16 -16 -15 -33 1 -47 21 -17 55 23 37 44 -15 18 -22 19
-38 3z"/>
<path d="M6183 1303 c-18 -7 -16 -28 3 -43 12 -11 18 -10 31 3 13 13 14 19 3
31 -13 17 -17 18 -37 9z"/>
<path d="M2293 1265 c-7 -19 13 -36 37 -32 8 1 15 11 15 22 0 26 -42 34 -52
10z"/>
<path d="M2785 1266 c-16 -12 -17 -16 -6 -30 17 -20 35 -20 51 -1 10 12 10 18
0 30 -15 19 -21 19 -45 1z"/>
<path d="M7015 1192 c-118 -60 -150 -81 -150 -97 0 -19 8 -20 140 -25 77 -3
146 -9 153 -13 6 -5 12 -20 12 -34 l0 -26 -142 6 c-79 4 -173 7 -210 7 l-68 0
0 50 c0 28 -4 50 -10 50 -21 0 -50 -41 -50 -70 l0 -30 -110 0 -110 0 0 55 c0
30 -4 55 -10 55 -20 0 -49 -39 -56 -74 l-6 -36 -62 0 c-84 0 -88 4 -84 84 2
40 -1 66 -7 66 -29 -1 -128 -29 -149 -44 -28 -18 -46 -70 -46 -133 l0 -43 378
0 c207 0 563 -3 790 -7 l412 -6 0 110 0 111 -76 -24 c-91 -28 -101 -35 -114
-85 l-11 -39 -94 0 -94 0 -6 45 c-11 72 -21 79 -121 85 -56 3 -89 9 -91 17 -3
7 32 35 76 64 45 28 81 53 81 55 0 9 -23 -1 -165 -74z m-835 -152 c0 -28 -3
-30 -35 -30 -24 0 -35 5 -35 14 0 21 28 46 51 46 14 0 19 -7 19 -30z m1378 -2
c-2 -18 -11 -24 -35 -26 -36 -4 -38 0 -23 29 6 11 21 19 36 19 21 0 25 -4 22
-22z"/>
<path d="M6679 1239 c-9 -17 -8 -25 4 -37 9 -8 23 -12 31 -9 21 8 21 53 0 61
-22 8 -22 8 -35 -15z"/>
<path d="M6573 1243 c-17 -6 -16 -28 2 -43 19 -16 45 3 45 31 0 19 -20 24 -47
12z"/>
<path d="M850 1194 c-97 -26 -130 -63 -130 -151 l0 -52 293 -3 c160 -2 294 -2
296 -1 2 1 6 52 9 114 5 107 4 112 -14 104 -10 -4 -44 -15 -74 -24 -80 -24
-97 -36 -107 -78 l-9 -38 -97 -3 -97 -3 0 76 c0 41 -3 75 -7 74 -5 0 -33 -7
-63 -15z m10 -105 c0 -29 -2 -30 -37 -27 -32 2 -37 6 -35 23 5 24 19 35 50 35
18 0 22 -5 22 -31z m380 6 c0 -21 -5 -25 -30 -25 -31 0 -39 17 -18 38 22 22
48 14 48 -13z"/>
<path d="M3736 1173 c-3 -4 -6 -21 -6 -39 l0 -33 73 -3 c70 -3 72 -4 75 -30
l3 -28 -90 0 -91 0 0 -40 0 -40 390 0 390 0 6 25 c8 33 5 36 -52 46 -47 9 -64
21 -64 47 0 8 19 12 60 12 l60 0 0 44 0 45 -32 -10 c-18 -5 -54 -9 -80 -9 -57
0 -94 -28 -84 -63 20 -73 25 -67 -48 -67 l-66 0 0 55 c0 30 -4 55 -10 55 -20
0 -49 -39 -56 -74 l-6 -36 -79 0 -79 0 0 48 c0 62 -20 81 -91 88 -30 3 -68 7
-86 9 -17 2 -34 1 -37 -2z"/>
<path d="M2668 1141 c-16 -13 -30 -36 -34 -56 l-6 -35 -129 0 -129 0 0 30 c0
34 -2 35 -33 19 -33 -18 -37 -28 -37 -96 l0 -62 -40 -3 c-39 -3 -39 -4 -27
-28 17 -34 63 -55 96 -44 19 7 30 21 40 57 l15 47 147 0 c114 0 149 3 158 14
8 9 11 44 9 96 l-3 82 -27 -21z"/>
<path d="M2527 893 c-12 -11 -7 -41 7 -46 21 -8 50 17 43 37 -6 16 -38 22 -50
9z"/>
<path d="M2634 885 c-8 -21 3 -45 20 -45 18 0 40 36 31 50 -9 15 -45 12 -51
-5z"/>
<path d="M4090 874 c-11 -12 -10 -18 3 -32 16 -15 18 -15 33 0 19 18 12 48 -9
48 -8 0 -20 -7 -27 -16z"/>
<path d="M6372 857 c-9 -10 -8 -18 2 -32 18 -25 48 -13 44 17 -4 27 -30 35
-46 15z"/>
<path d="M1236 689 c-20 -29 -10 -49 24 -49 15 0 30 6 33 14 6 15 -18 56 -33
56 -5 0 -16 -10 -24 -21z"/>
<path d="M887 676 c6 -31 -62 -263 -88 -298 l-20 -28 66 0 c61 0 65 1 56 19
-8 13 -5 39 10 92 11 41 22 75 24 77 8 8 47 -139 43 -162 -5 -23 -3 -25 54
-28 32 -2 58 -2 58 0 0 1 -8 19 -19 40 -10 20 -29 70 -42 111 l-24 73 31 27
c16 14 50 43 74 63 l45 37 -54 1 c-48 0 -52 -2 -40 -16 12 -14 6 -24 -50 -76
-35 -33 -65 -58 -67 -55 -9 8 28 109 47 128 19 19 18 19 -45 19 -61 0 -63 -1
-59 -24z"/>
<path d="M2157 546 c-70 -79 -138 -157 -152 -175 l-27 -31 32 0 c21 0 30 4 28
14 -2 7 12 32 30 55 31 39 35 41 89 41 l55 0 -4 -37 c-3 -21 -8 -45 -12 -54
-6 -14 0 -18 41 -20 l48 -4 3 178 c2 97 1 177 -1 177 -3 0 -61 -65 -130 -144z
m55 -28 l-4 -48 -45 0 c-50 0 -50 3 7 67 19 22 38 37 41 34 3 -3 4 -27 1 -53z"/>
<path d="M2447 683 c-4 -3 -7 -16 -7 -29 0 -12 -18 -82 -40 -155 -22 -73 -40
-136 -40 -140 0 -10 59 -29 92 -29 61 0 129 58 147 126 12 44 8 68 -17 97 -16
19 -57 23 -67 7 -3 -5 -12 -10 -20 -10 -12 0 -12 7 1 48 30 97 30 92 -8 92
-19 0 -38 -3 -41 -7z m85 -173 c13 -20 -5 -86 -35 -131 -23 -34 -52 -48 -68
-32 -10 10 30 143 51 167 15 20 39 17 52 -4z"/>
<path d="M2852 683 c-28 -4 -31 -7 -21 -19 18 -22 -8 -108 -30 -98 -31 13 -66
3 -99 -29 -58 -56 -83 -126 -62 -178 16 -39 52 -39 91 0 l29 29 0 -28 c0 -16
7 -30 16 -34 20 -7 70 18 78 40 5 14 4 15 -9 4 -9 -7 -18 -10 -22 -6 -3 3 15
75 40 159 53 171 52 168 35 165 -7 0 -28 -3 -46 -5z m-57 -142 c7 -25 -50
-167 -71 -175 -9 -3 -19 3 -25 17 -8 19 -4 37 25 100 35 77 59 96 71 58z"/>
<path d="M3947 673 c-22 -25 -22 -52 -1 -60 18 -7 45 6 51 24 2 5 -4 20 -14
32 -18 22 -19 22 -36 4z"/>
<path d="M3292 653 c1 -16 -17 -90 -41 -166 -23 -76 -40 -145 -37 -153 9 -22
52 -16 83 12 25 22 25 24 5 14 -13 -6 -26 -10 -28 -7 -3 3 70 258 91 315 3 8
-8 12 -35 12 -36 0 -39 -2 -38 -27z"/>
<path d="M4474 664 c-15 -4 -20 -11 -17 -23 5 -19 -73 -289 -89 -308 -8 -10 2
-13 45 -13 50 0 55 2 50 20 -6 22 14 107 30 128 5 7 32 12 61 12 105 0 171 89
114 155 -20 22 -33 26 -98 29 -41 3 -85 2 -96 0z m120 -30 c26 -25 20 -72 -13
-105 -27 -27 -81 -41 -81 -21 0 7 24 97 35 130 6 17 40 15 59 -4z"/>
<path d="M5093 663 c-16 -3 -23 -11 -23 -28 0 -13 -18 -82 -40 -154 -22 -71
-40 -137 -40 -145 0 -9 15 -19 38 -25 50 -14 59 -14 38 2 -18 13 -18 16 4 90
16 53 30 81 46 92 22 14 24 14 40 -10 16 -24 16 -28 -2 -68 -11 -23 -29 -56
-41 -74 -20 -29 -20 -33 -5 -33 59 0 122 85 122 164 0 38 -4 48 -25 62 -21 14
-31 15 -51 5 -40 -18 -44 -14 -28 37 31 102 33 98 -33 85z"/>
<path d="M5374 663 c-26 -3 -30 -8 -27 -26 3 -13 -14 -83 -37 -157 -45 -148
-47 -173 -12 -178 25 -4 72 22 72 39 0 8 -5 7 -15 -1 -9 -7 -18 -10 -22 -7 -3
4 17 81 44 172 30 96 46 164 39 163 -6 0 -25 -3 -42 -5z"/>
<path d="M5500 649 c-16 -28 -5 -49 24 -49 32 0 41 16 25 46 -15 30 -35 31
-49 3z"/>
<path d="M6370 645 c-19 -23 -8 -50 23 -53 32 -4 44 16 27 47 -13 24 -33 27
-50 6z"/>
<path d="M6544 653 c-25 -3 -32 -9 -32 -26 0 -12 -18 -82 -41 -155 -23 -74
-41 -140 -41 -147 0 -7 15 -19 34 -25 96 -31 206 56 206 164 0 57 -48 84 -101
56 -10 -6 -19 -9 -19 -8 0 2 9 32 20 68 22 72 23 81 13 78 -5 0 -22 -3 -39 -5z
m60 -222 c-14 -76 -77 -152 -105 -124 -15 15 29 153 55 175 19 15 22 15 39 1
13 -13 16 -25 11 -52z"/>
<path d="M6050 620 c0 -37 -66 -267 -86 -297 l-14 -23 125 0 c118 0 125 1 139
23 8 12 17 33 21 46 7 23 5 22 -34 -9 -30 -24 -53 -34 -89 -38 -27 -2 -52 0
-56 6 -8 13 73 283 92 305 14 16 12 17 -41 17 -57 0 -57 0 -57 -30z"/>
<path d="M1218 583 c-23 -4 -28 -9 -28 -34 0 -16 -10 -62 -22 -103 -24 -81
-20 -106 15 -106 24 0 72 29 50 30 -7 0 -13 7 -13 14 0 13 41 151 57 193 5 13
-4 14 -59 6z"/>
<path d="M1375 583 c-28 -4 -31 -7 -28 -36 2 -18 -7 -68 -21 -112 -19 -60 -22
-81 -13 -87 25 -16 37 -6 72 60 41 79 89 141 101 129 4 -4 -3 -43 -15 -87 -25
-86 -23 -110 9 -110 27 0 60 17 60 31 0 6 -5 7 -11 3 -14 -8 -11 6 16 107 22
78 17 99 -23 99 -22 0 -40 -12 -72 -46 -46 -50 -47 -48 -24 34 4 15 2 22 -7
20 -8 0 -28 -3 -44 -5z"/>
<path d="M1683 575 c-17 -7 -36 -22 -42 -34 -16 -29 -13 -77 4 -91 14 -12 13
-16 -7 -37 -14 -15 -21 -34 -20 -54 2 -23 -3 -32 -22 -40 -30 -14 -39 -34 -26
-59 13 -25 44 -34 109 -32 61 1 100 23 116 66 12 34 -12 60 -81 84 -46 17 -61
35 -32 39 7 1 35 5 61 8 54 7 87 33 87 68 0 13 9 32 20 42 11 10 20 21 20 25
0 6 -114 30 -141 30 -8 -1 -28 -7 -46 -15z m90 -19 c8 -20 -10 -80 -32 -107
-16 -20 -21 -21 -35 -10 -21 18 -20 44 4 91 21 41 53 54 63 26z m-45 -252 c42
-27 20 -64 -38 -64 -39 0 -80 23 -80 45 0 8 10 21 23 30 24 17 57 13 95 -11z"/>
<path d="M2967 563 c-4 -3 -7 -17 -7 -30 0 -13 -10 -56 -22 -97 -11 -40 -18
-81 -15 -90 12 -30 58 -19 102 24 l40 39 0 -42 c0 -35 3 -42 21 -45 12 -2 34
8 50 22 26 22 27 24 7 19 -25 -6 -27 -19 21 142 9 28 12 53 7 58 -20 20 -46
-2 -83 -73 -40 -78 -98 -148 -98 -119 0 8 13 56 29 107 l29 92 -37 0 c-21 0
-41 -3 -44 -7z"/>
<path d="M3460 553 c-52 -36 -90 -105 -90 -166 0 -70 35 -87 89 -42 l30 26 3
-23 c2 -15 11 -24 26 -26 25 -4 72 22 72 39 0 8 -5 7 -15 -1 -9 -7 -17 -11
-20 -8 -2 2 9 48 25 103 17 54 30 100 30 103 0 3 -18 2 -40 -1 -22 -3 -43 -1
-46 4 -8 14 -37 11 -64 -8z m70 -49 c0 -37 -45 -131 -70 -144 -30 -16 -32 14
-4 100 33 104 73 129 74 44z"/>
<path d="M3670 548 c0 -7 -3 -24 -6 -38 -6 -21 -4 -23 7 -12 14 13 99 17 99 5
0 -5 -32 -44 -70 -88 l-69 -80 52 -32 c58 -37 73 -40 105 -17 28 20 30 64 2
64 -14 0 -21 -9 -26 -35 -3 -19 -9 -35 -13 -35 -4 0 -18 25 -30 55 l-23 55 66
80 c36 43 66 82 66 85 0 3 -36 5 -80 5 -57 0 -80 -4 -80 -12z"/>
<path d="M3899 553 c-1 -5 -1 -15 0 -23 1 -8 -10 -49 -24 -89 -30 -90 -32
-118 -5 -126 23 -7 75 18 84 42 6 16 6 16 -12 0 -10 -9 -21 -15 -24 -11 -3 3
9 52 27 110 l33 104 -39 0 c-22 0 -40 -3 -40 -7z"/>
<path d="M4032 528 c-5 -18 -8 -34 -7 -36 1 -1 26 2 55 8 29 6 55 8 58 6 2 -3
-28 -44 -68 -92 l-71 -87 48 -28 c26 -16 60 -29 74 -29 46 0 81 62 43 77 -19
7 -34 -13 -34 -44 0 -37 -18 -26 -45 28 l-26 51 24 31 c13 18 43 54 66 82 22
27 41 53 41 57 0 5 -34 8 -75 8 l-74 0 -9 -32z"/>
<path d="M4752 553 c-16 -3 -20 -8 -14 -16 6 -8 1 -40 -14 -92 -31 -100 -29
-129 8 -133 22 -3 37 7 72 45 l45 48 -11 -38 c-10 -31 -9 -40 3 -53 12 -11 21
-12 46 -3 17 6 34 17 37 24 3 9 0 12 -10 8 -19 -7 -18 -2 16 107 16 52 30 96
30 98 0 2 -12 2 -27 0 -24 -2 -35 -16 -71 -83 -45 -84 -77 -124 -89 -112 -4 4
7 52 24 107 l30 100 -26 -1 c-14 -1 -36 -4 -49 -6z"/>
<path d="M5474 543 c-15 -3 -20 -10 -17 -22 2 -10 -7 -57 -22 -105 -21 -69
-24 -90 -15 -102 19 -22 54 -17 81 13 13 15 16 21 6 14 -9 -8 -20 -11 -23 -8
-3 3 8 51 25 105 17 55 31 103 31 106 0 6 -31 6 -66 -1z"/>
<path d="M5680 539 c-54 -22 -110 -100 -110 -154 0 -28 16 -66 34 -77 21 -14
81 -8 114 12 34 21 45 38 13 20 -26 -14 -64 -13 -79 2 -15 15 -16 92 -1 121
19 36 62 77 81 77 21 0 24 -20 6 -38 -19 -19 7 -40 30 -26 23 15 26 38 7 58
-18 18 -57 20 -95 5z"/>
<path d="M6335 529 c-4 -6 -5 -12 -2 -15 2 -3 -8 -46 -24 -96 -21 -67 -26 -95
-18 -109 5 -11 14 -19 19 -19 24 0 60 21 71 42 12 23 12 23 -10 4 -29 -26 -28
-11 9 104 16 52 30 96 30 98 0 8 -70 0 -75 -9z"/>
<path d="M6783 533 c-29 -4 -32 -7 -27 -31 3 -15 -6 -65 -21 -111 -14 -47 -25
-88 -25 -93 0 -4 13 -8 29 -8 25 0 30 6 49 58 33 89 57 122 82 115 25 -7 40
10 40 45 0 42 -46 19 -88 -44 -11 -17 -12 -16 -7 11 3 17 8 38 11 48 3 9 2 16
-3 15 -4 0 -22 -3 -40 -5z"/>
<path d="M7005 508 c-20 -17 -46 -50 -57 -72 -21 -40 -28 -111 -14 -134 13
-21 59 -13 88 15 26 25 28 25 28 6 0 -46 55 -50 90 -8 14 16 13 17 -8 11 -26
-9 -26 -6 -7 59 9 28 22 72 30 99 l15 49 -40 -6 c-22 -3 -43 -1 -46 4 -11 18
-44 8 -79 -23z m80 -8 c13 -42 -28 -150 -64 -170 -32 -17 -34 18 -6 100 30 88
56 114 70 70z"/>
<path d="M7252 523 c-17 -3 -21 -9 -17 -26 3 -12 -6 -60 -20 -106 -14 -47 -25
-88 -25 -93 0 -4 12 -8 28 -8 24 0 29 6 46 53 10 28 29 69 42 89 21 33 27 36
48 28 21 -8 26 -5 34 19 23 66 -27 65 -71 -1 -27 -41 -28 -42 -24 -13 3 17 9
38 12 48 7 18 -2 20 -53 10z"/>
<path d="M7453 520 c-24 -10 -30 -25 -13 -35 6 -4 10 -58 10 -129 0 -128 -8
-156 -40 -136 -8 6 -25 10 -37 10 -18 0 -23 -6 -23 -25 0 -21 5 -25 32 -25 27
0 43 11 90 60 65 69 158 213 158 246 0 29 -27 51 -42 36 -9 -9 -9 -21 0 -49
10 -34 9 -41 -20 -91 -36 -64 -42 -59 -52 47 -11 107 -14 111 -63 91z"/>
</g>
</svg>
