<?xml version="1.0" standalone="no"?>
<!DOCTYPE svg PUBLIC "-//W3C//DTD SVG 20010904//EN"
 "http://www.w3.org/TR/2001/REC-SVG-20010904/DTD/svg10.dtd">
<svg version="1.0" xmlns="http://www.w3.org/2000/svg"
 width="2000.000000pt" height="945.000000pt" viewBox="0 0 2000.000000 945.000000"
 preserveAspectRatio="xMidYMid meet">

<g transform="translate(0.000000,945.000000) scale(0.100000,-0.100000)"
fill="#000000" stroke="none">
<path d="M6065 9401 c-803 -306 -1548 -794 -2136 -1399 -138 -141 -293 -313
-348 -384 -12 -17 47 -18 1135 -19 632 0 1154 -1 1159 -2 6 0 38 15 70 34 33
19 107 59 164 88 l104 54 66 -33 c36 -17 107 -55 156 -83 l90 -52 1166 -5
1166 -5 -15 25 c-62 99 -383 440 -587 624 -525 473 -1209 885 -1880 1132 -66
25 -130 49 -143 54 -37 16 -61 12 -167 -29z"/>
<path d="M7735 7570 l-1140 -5 1152 -5 c920 -4 1149 -2 1141 8 -6 6 -11 11
-12 10 0 -2 -514 -5 -1141 -8z"/>
<path d="M4107 7563 c314 -2 832 -2 1150 0 318 1 61 2 -572 2 -632 0 -893 -1
-578 -2z"/>
<path d="M2450 5023 c-307 -7 -692 -43 -948 -88 -614 -108 -1040 -317 -1274
-625 -264 -347 -301 -922 -82 -1290 172 -289 516 -492 1064 -629 378 -93 767
-148 1520 -211 953 -80 1376 -141 1642 -236 288 -103 418 -267 418 -525 0
-350 -268 -548 -845 -624 -270 -35 -839 -37 -1239 -5 -860 71 -1628 256 -2167
524 -154 77 -341 195 -422 266 -26 23 -50 40 -53 37 -3 -3 0 -40 5 -83 31
-230 31 -603 0 -877 -6 -54 -9 -100 -6 -103 9 -10 364 -126 547 -178 640 -186
1296 -301 2004 -353 282 -20 979 -23 1231 -5 997 72 1602 288 1920 685 166
208 247 484 232 792 -22 438 -253 745 -719 955 -423 191 -1064 310 -2103 390
-1149 88 -1609 191 -1824 410 -99 101 -149 240 -137 390 22 295 255 469 738
549 173 29 326 41 608 48 694 17 1458 -86 2211 -297 252 -71 732 -235 922
-314 l37 -16 0 27 c0 16 -7 87 -15 158 -20 175 -18 500 3 688 10 82 15 150 12
152 -3 2 -106 28 -230 58 -463 114 -856 187 -1339 247 -551 68 -1145 97 -1711
83z"/>
<path d="M15630 4963 c-118 -2 -492 -7 -830 -11 l-615 -7 3 -40 c38 -652 47
-1099 47 -2390 0 -1270 -12 -1874 -48 -2395 l-2 -35 465 -6 c1199 -16 2879
-22 3086 -10 1006 57 1619 238 1965 581 203 201 292 419 292 720 0 294 -79
499 -267 697 -276 290 -738 455 -1411 503 -77 5 -157 10 -177 10 -37 0 -38 1
-38 38 l0 39 153 12 c202 15 326 34 490 76 419 105 700 300 838 580 76 155 92
227 93 430 0 191 -11 262 -65 390 -129 310 -445 541 -918 671 -214 59 -394 91
-701 125 -187 21 -237 22 -1170 24 -536 0 -1072 0 -1190 -2z m1951 -793 c504
-49 805 -229 874 -522 32 -137 10 -326 -52 -441 -96 -176 -310 -306 -605 -366
-220 -45 -232 -46 -1355 -46 -1064 0 -1072 0 -1077 20 -8 29 -7 1065 1 1228
l6 137 1052 0 c633 0 1094 -4 1156 -10z m37 -2020 c471 -34 730 -100 902 -229
157 -118 221 -308 176 -523 -76 -355 -450 -545 -1178 -597 -278 -21 -1895 -9
-2079 15 l-47 6 -6 71 c-3 40 -8 341 -12 670 l-7 597 1052 0 c632 0 1111 -4
1199 -10z"/>
<path d="M6954 4753 c41 -1069 41 -3396 0 -4525 l-7 -178 592 0 591 0 0 35 c0
19 -7 211 -15 427 -8 216 -19 566 -25 778 -14 508 -23 2326 -13 2554 l8 178
226 -253 c762 -858 1482 -1701 2215 -2599 195 -239 812 -1008 868 -1082 l28
-38 815 0 816 0 -7 118 c-8 138 -22 520 -36 937 -27 798 -22 2761 9 3620 4
105 6 191 5 193 -1 1 -71 -5 -155 -15 -209 -23 -694 -23 -898 0 -80 9 -147 15
-150 12 -2 -3 3 -224 13 -493 37 -1060 53 -2273 41 -3027 l-7 -470 -40 45
c-87 98 -490 574 -779 920 -628 753 -1385 1689 -2083 2575 -186 237 -344 436
-351 443 -10 11 -47 11 -221 -4 -284 -24 -945 -24 -1224 -1 -107 9 -201 17
-209 17 -12 0 -13 -28 -7 -167z"/>
</g>
</svg>
