<svg version="1.2" xmlns="http://www.w3.org/2000/svg" viewBox="0 0 1550 1784" width="1550" height="1784"><defs><clipPath clipPathUnits="userSpaceOnUse" id="cp1"><path d="m5745.47 0.22v1783.08h-5744.25v-1783.08z"/></clipPath></defs><style>.a{fill:#002a30}</style><g clip-path="url(#cp1)"><path fill-rule="evenodd" class="a" d="m1549.1 445.8v891.9l-774.1 445.6-774.1-445.6v-891.9l774.5-445.6zm-868.3 1087.5c-15.9-110-42.9-217.8-80.3-322.2-42.3-120.8-101.9-234.1-177.5-337.5-68.9-93.3-153.7-173.3-251.1-236.3v602.6zm10-1287.8l-429.7 247.8c116.7 74.8 218.9 170.4 300.8 282.2 55.9 79.3 99.6 166.7 128.9 259.3zm169.6 789.3c29.3-92.6 72.6-180 128.9-259.3 81.9-112.2 184.1-207.8 300.8-282.2l-429.3-247.8zm519.3-397.4c-97.4 62.9-182.6 143.3-251.1 236.6-75.6 103-135.2 216.7-177.4 337.1-37.4 104.5-64.5 212.6-80.4 322.2l508.9-293.3z"/></g></svg>