<svg width="1457" height="729" version="1.1" xmlns="http://www.w3.org/2000/svg" desc="Created with imagetracer.js version 1.2.6" ><path fill="rgb(0,0,0)" stroke="rgb(0,0,0)" stroke-width="1" opacity="0" d="M 0 0 L 363 0.5 L 0 362.5 L 0 0 Z " /><path fill="rgb(0,0,0)" stroke="rgb(0,0,0)" stroke-width="1" opacity="0" d="M 1094.5 0 L 1457 0 L 1457 362.5 L 1094.5 0 Z " /><path fill="rgb(0,0,0)" stroke="rgb(0,0,0)" stroke-width="1" opacity="0" d="M 365.5 2 L 728 364.5 L 365.5 727 L 365.5 2 Z " /><path fill="rgb(0,0,0)" stroke="rgb(0,0,0)" stroke-width="1" opacity="0" d="M 1091.5 2 L 1092 726.5 L 729 364.5 L 1091.5 2 Z " /><path fill="rgb(0,0,0)" stroke="rgb(0,0,0)" stroke-width="1" opacity="0" d="M 0.5 365 L 17.5 383 L 21 385.5 L 26.5 392 L 37 401.5 L 106.5 472 L 109 473.5 L 121.5 487 L 124 488.5 L 155.5 521 L 161 525.5 L 172.5 538 Q 174.8 537.3 174 539.5 L 214.5 580 L 216 580 L 216 581.5 L 363 728.5 L 0 729 L 0.5 365 Z " /><path fill="rgb(0,0,0)" stroke="rgb(0,0,0)" stroke-width="1" opacity="0" d="M 1456.5 365 L 1457 729 L 1094 728.5 L 1137.5 684 L 1149 673.5 L 1154.5 667 L 1163 659.5 Q 1162.3 657.3 1164.5 658 L 1187.5 634 L 1208 614.5 Q 1207.3 612.3 1209.5 613 L 1243.5 578 L 1280 542.5 L 1304.5 517 L 1314 508.5 L 1361.5 460 L 1371 451.5 L 1390.5 431 L 1400 422.5 Q 1399.3 420.3 1401.5 421 L 1431.5 390 L 1434 388.5 L 1440.5 381 Q 1442.8 381.8 1442 379.5 L 1456.5 365 Z " /><path fill="rgb(235,50,34)" stroke="rgb(235,50,34)" stroke-width="1" opacity="0.5058823529411764" d="M 363.5 0 L 728.5 364 L 1093.5 0 L 1457 364.5 L 1442 379.5 L 1442 381 L 1434 387.5 L 1432.5 390 L 1415 406.5 L 1401.5 421 Q 1399.3 420.3 1400 422.5 L 1371 450.5 L 1362.5 460 L 1314 507.5 L 1305.5 517 L 1280 541.5 L 1244.5 578 L 1236 585.5 L 1209.5 613 Q 1207.3 612.3 1208 614.5 L 1180 641.5 L 1164.5 658 Q 1162.3 657.3 1163 659.5 L 1149 672.5 L 1138.5 684 L 1136 685.5 L 1093.5 729 Q 1090.2 730.1 1091 727.5 L 728.5 365 L 364.5 729 L 216 581.5 Q 216.8 579.3 214.5 580 L 174 539.5 L 174 538 L 172.5 538 L 161 526.5 L 156.5 521 L 124 489.5 L 122.5 487 L 109 474.5 L 107.5 472 L 37 402.5 L 27.5 392 L 21 386.5 L 18.5 383 L 14 379.5 L 0 363.5 L 363.5 0 Z M 364 1 L 1 364 L 15 380 L 18 381 L 23 388 L 26 389 L 41 406 L 72 435 L 83 448 L 131 495 Q 130 497 133 496 L 142 507 L 154 517 L 176 541 L 215 578 L 220 585 L 272 635 L 275 640 L 364 728 L 364 1 Z M 1094 1 L 1094 728 L 1131 690 L 1141 681 L 1147 674 L 1192 630 L 1205 616 L 1213 609 L 1221 600 L 1248 574 L 1278 543 L 1308 514 L 1456 364 L 1445 353 L 1439 347 L 1434 342 L 1431 339 L 1407 314 L 1405 314 L 1405 313 L 1094 1 Z M 366 2 L 366 727 L 728 365 L 366 2 Z M 1092 2 L 729 365 L 1092 727 L 1092 2 Z " /><path fill="rgb(238,53,36)" stroke="rgb(238,53,36)" stroke-width="1" opacity="0.996078431372549" d="M 365.5 0 L 512.5 148 L 365.5 0 Z " /><path fill="rgb(238,53,36)" stroke="rgb(238,53,36)" stroke-width="1" opacity="0.996078431372549" d="M 1091.5 0 L 910.5 182 L 1091.5 0 Z " /><path fill="rgb(238,53,36)" stroke="rgb(238,53,36)" stroke-width="1" opacity="0.996078431372549" d="M 363.5 1 L 1.5 364 L 363.5 1 Z " /><path fill="rgb(238,53,36)" stroke="rgb(238,53,36)" stroke-width="1" opacity="0.996078431372549" d="M 1093.5 1 L 1404.5 313 L 1093.5 1 Z " /><path fill="rgb(238,53,36)" stroke="rgb(238,53,36)" stroke-width="1" opacity="0.996078431372549" d="M 514.5 149 L 546.5 182 L 514.5 149 Z " /><path fill="rgb(238,53,36)" stroke="rgb(238,53,36)" stroke-width="1" opacity="0.996078431372549" d="M 548.5 183 L 554.5 190 L 548.5 183 Z " /><path fill="rgb(238,53,36)" stroke="rgb(238,53,36)" stroke-width="1" opacity="0.996078431372549" d="M 908.5 183 L 779.5 313 L 908.5 183 Z " /><path fill="rgb(238,53,36)" stroke="rgb(238,53,36)" stroke-width="1" opacity="0.996078431372549" d="M 556.5 191 L 563.5 199 L 556.5 191 Z " /><path fill="rgb(238,53,36)" stroke="rgb(238,53,36)" stroke-width="1" opacity="0.996078431372549" d="M 565.5 200 L 571.5 207 L 565.5 200 Z " /><path fill="rgb(238,53,36)" stroke="rgb(238,53,36)" stroke-width="1" opacity="0.996078431372549" d="M 573.5 208 L 588.5 224 L 573.5 208 Z " /><path fill="rgb(238,53,36)" stroke="rgb(238,53,36)" stroke-width="1" opacity="0.996078431372549" d="M 590.5 225 L 677.5 313 L 590.5 225 Z " /><path fill="rgb(238,53,36)" stroke="rgb(238,53,36)" stroke-width="1" opacity="0.996078431372549" d="M 679.5 314 L 694.5 330 L 679.5 314 Z " /><path fill="rgb(238,53,36)" stroke="rgb(238,53,36)" stroke-width="1" opacity="0.996078431372549" d="M 777.5 314 L 762.5 330 L 777.5 314 Z " /><path fill="rgb(238,53,36)" stroke="rgb(238,53,36)" stroke-width="1" opacity="0.996078431372549" d="M 1406.5 314 L 1430.5 339 L 1406.5 314 Z " /><path fill="rgb(238,53,36)" stroke="rgb(238,53,36)" stroke-width="1" opacity="0.996078431372549" d="M 696.5 331 L 699.5 335 L 696.5 331 Z " /><path fill="rgb(238,53,36)" stroke="rgb(238,53,36)" stroke-width="1" opacity="0.996078431372549" d="M 760.5 331 L 757.5 335 L 760.5 331 Z " /><path fill="rgb(238,53,36)" stroke="rgb(238,53,36)" stroke-width="1" opacity="0.996078431372549" d="M 701.5 336 L 702.5 338 L 701.5 336 Z " /><path fill="rgb(238,53,36)" stroke="rgb(238,53,36)" stroke-width="1" opacity="0.996078431372549" d="M 755.5 336 L 752.5 340 L 755.5 336 Z " /><path fill="rgb(238,53,36)" stroke="rgb(238,53,36)" stroke-width="1" opacity="0.996078431372549" d="M 706.5 341 L 708.5 344 L 706.5 341 Z " /><path fill="rgb(238,53,36)" stroke="rgb(238,53,36)" stroke-width="1" opacity="0.996078431372549" d="M 750.5 341 L 748.5 344 L 750.5 341 Z " /><path fill="rgb(238,53,36)" stroke="rgb(238,53,36)" stroke-width="1" opacity="0.996078431372549" d="M 1434.5 342 L 1438.5 347 L 1434.5 342 Z " /><path fill="rgb(238,53,36)" stroke="rgb(238,53,36)" stroke-width="1" opacity="0.996078431372549" d="M 746.5 345 L 744.5 348 L 746.5 345 Z " /><path fill="rgb(238,53,36)" stroke="rgb(238,53,36)" stroke-width="1" opacity="0.996078431372549" d="M 742.5 349 L 740.5 352 L 742.5 349 Z " /><path fill="rgb(238,53,36)" stroke="rgb(238,53,36)" stroke-width="1" opacity="0.996078431372549" d="M 718.5 353 L 719.5 355 L 718.5 353 Z " /><path fill="rgb(238,53,36)" stroke="rgb(238,53,36)" stroke-width="1" opacity="0.996078431372549" d="M 738.5 353 L 732.5 360 L 738.5 353 Z " /><path fill="rgb(238,53,36)" stroke="rgb(238,53,36)" stroke-width="1" opacity="0.996078431372549" d="M 1445.5 353 L 1455.5 364 L 1445.5 353 Z " /><path fill="rgb(238,53,36)" stroke="rgb(238,53,36)" stroke-width="1" opacity="0.996078431372549" d="M 721.5 356 L 724.5 360 L 721.5 356 Z " /><path fill="rgb(238,53,36)" stroke="rgb(238,53,36)" stroke-width="1" opacity="0.996078431372549" d="M 726.5 361 L 728.5 363 L 731 361.5 Q 727.8 366.8 726.5 361 Z " /><path fill="rgb(238,53,36)" stroke="rgb(238,53,36)" stroke-width="1" opacity="0.996078431372549" d="M 15.5 379 L 16.5 381 L 15.5 379 Z " /><path fill="rgb(238,53,36)" stroke="rgb(238,53,36)" stroke-width="1" opacity="0.996078431372549" d="M 23.5 387 L 24.5 389 L 23.5 387 Z " /><path fill="rgb(238,53,36)" stroke="rgb(238,53,36)" stroke-width="1" opacity="0.996078431372549" d="M 41.5 405 L 70.5 435 L 41.5 405 Z " /><path fill="rgb(238,53,36)" stroke="rgb(238,53,36)" stroke-width="1" opacity="0.996078431372549" d="M 769.5 406 L 771.5 409 L 769.5 406 Z " /><path fill="rgb(238,53,36)" stroke="rgb(238,53,36)" stroke-width="1" opacity="0.996078431372549" d="M 773.5 410 L 777.5 415 L 773.5 410 Z " /><path fill="rgb(238,53,36)" stroke="rgb(238,53,36)" stroke-width="1" opacity="0.996078431372549" d="M 779.5 416 L 783.5 421 L 779.5 416 Z " /><path fill="rgb(238,53,36)" stroke="rgb(238,53,36)" stroke-width="1" opacity="0.996078431372549" d="M 785.5 422 L 796.5 434 L 785.5 422 Z " /><path fill="rgb(238,53,36)" stroke="rgb(238,53,36)" stroke-width="1" opacity="0.996078431372549" d="M 83.5 447 L 96.5 461 L 83.5 447 Z " /><path fill="rgb(238,53,36)" stroke="rgb(238,53,36)" stroke-width="1" opacity="0.996078431372549" d="M 813.5 450 L 818.5 456 L 813.5 450 Z " /><path fill="rgb(238,53,36)" stroke="rgb(238,53,36)" stroke-width="1" opacity="0.996078431372549" d="M 820.5 457 L 824.5 462 L 820.5 457 Z " /><path fill="rgb(238,53,36)" stroke="rgb(238,53,36)" stroke-width="1" opacity="0.996078431372549" d="M 142.5 506 L 152.5 517 L 142.5 506 Z " /><path fill="rgb(238,53,36)" stroke="rgb(238,53,36)" stroke-width="1" opacity="0.996078431372549" d="M 870.5 507 L 874.5 512 L 870.5 507 Z " /><path fill="rgb(238,53,36)" stroke="rgb(238,53,36)" stroke-width="1" opacity="0.996078431372549" d="M 1309.5 511 L 1307.5 514 L 1309.5 511 Z " /><path fill="rgb(238,53,36)" stroke="rgb(238,53,36)" stroke-width="1" opacity="0.996078431372549" d="M 580.5 513 L 579.5 515 L 580.5 513 Z " /><path fill="rgb(238,53,36)" stroke="rgb(238,53,36)" stroke-width="1" opacity="0.996078431372549" d="M 876.5 513 L 880.5 518 L 876.5 513 Z " /><path fill="rgb(238,53,36)" stroke="rgb(238,53,36)" stroke-width="1" opacity="0.996078431372549" d="M 176.5 540 L 213.5 578 L 176.5 540 Z " /><path fill="rgb(238,53,36)" stroke="rgb(238,53,36)" stroke-width="1" opacity="0.996078431372549" d="M 904.5 541 L 925.5 563 L 904.5 541 Z " /><path fill="rgb(238,53,36)" stroke="rgb(238,53,36)" stroke-width="1" opacity="0.996078431372549" d="M 1277.5 543 L 1247.5 574 L 1277.5 543 Z " /><path fill="rgb(238,53,36)" stroke="rgb(238,53,36)" stroke-width="1" opacity="0.996078431372549" d="M 549.5 544 L 548.5 546 L 549.5 544 Z " /><path fill="rgb(238,53,36)" stroke="rgb(238,53,36)" stroke-width="1" opacity="0.996078431372549" d="M 546.5 547 L 539.5 555 L 546.5 547 Z " /><path fill="rgb(238,53,36)" stroke="rgb(238,53,36)" stroke-width="1" opacity="0.996078431372549" d="M 537.5 556 L 531.5 563 L 537.5 556 Z " /><path fill="rgb(238,53,36)" stroke="rgb(238,53,36)" stroke-width="1" opacity="0.996078431372549" d="M 529.5 564 L 522.5 572 L 529.5 564 Z " /><path fill="rgb(238,53,36)" stroke="rgb(238,53,36)" stroke-width="1" opacity="0.996078431372549" d="M 927.5 564 L 941.5 579 L 927.5 564 Z " /><path fill="rgb(238,53,36)" stroke="rgb(238,53,36)" stroke-width="1" opacity="0.996078431372549" d="M 520.5 573 L 519.5 575 L 520.5 573 Z " /><path fill="rgb(238,53,36)" stroke="rgb(238,53,36)" stroke-width="1" opacity="0.996078431372549" d="M 220.5 584 L 270.5 635 L 220.5 584 Z " /><path fill="rgb(238,53,36)" stroke="rgb(238,53,36)" stroke-width="1" opacity="0.996078431372549" d="M 948.5 585 L 959.5 597 L 948.5 585 Z " /><path fill="rgb(238,53,36)" stroke="rgb(238,53,36)" stroke-width="1" opacity="0.996078431372549" d="M 961.5 598 L 967.5 605 L 961.5 598 Z " /><path fill="rgb(238,53,36)" stroke="rgb(238,53,36)" stroke-width="1" opacity="0.996078431372549" d="M 1220.5 600 L 1212.5 609 L 1220.5 600 Z " /><path fill="rgb(238,53,36)" stroke="rgb(238,53,36)" stroke-width="1" opacity="0.996078431372549" d="M 492.5 601 L 489.5 605 L 492.5 601 Z " /><path fill="rgb(238,53,36)" stroke="rgb(238,53,36)" stroke-width="1" opacity="0.996078431372549" d="M 487.5 606 L 484.5 610 L 487.5 606 Z " /><path fill="rgb(238,53,36)" stroke="rgb(238,53,36)" stroke-width="1" opacity="0.996078431372549" d="M 969.5 606 L 975.5 613 L 969.5 606 Z " /><path fill="rgb(238,53,36)" stroke="rgb(238,53,36)" stroke-width="1" opacity="0.996078431372549" d="M 977.5 614 L 983.5 621 L 977.5 614 Z " /><path fill="rgb(238,53,36)" stroke="rgb(238,53,36)" stroke-width="1" opacity="0.996078431372549" d="M 1204.5 616 L 1191.5 630 L 1204.5 616 Z " /><path fill="rgb(238,53,36)" stroke="rgb(238,53,36)" stroke-width="1" opacity="0.996078431372549" d="M 476.5 617 L 473.5 621 L 476.5 617 Z " /><path fill="rgb(238,53,36)" stroke="rgb(238,53,36)" stroke-width="1" opacity="0.996078431372549" d="M 471.5 622 L 465.5 629 L 471.5 622 Z " /><path fill="rgb(238,53,36)" stroke="rgb(238,53,36)" stroke-width="1" opacity="0.996078431372549" d="M 985.5 622 L 991.5 629 L 985.5 622 Z " /><path fill="rgb(238,53,36)" stroke="rgb(238,53,36)" stroke-width="1" opacity="0.996078431372549" d="M 993.5 630 L 998.5 636 L 993.5 630 Z " /><path fill="rgb(238,53,36)" stroke="rgb(238,53,36)" stroke-width="1" opacity="0.996078431372549" d="M 275.5 639 L 363.5 728 L 275.5 639 Z " /><path fill="rgb(238,53,36)" stroke="rgb(238,53,36)" stroke-width="1" opacity="0.996078431372549" d="M 1003.5 640 L 1006.5 644 L 1003.5 640 Z " /><path fill="rgb(238,53,36)" stroke="rgb(238,53,36)" stroke-width="1" opacity="0.996078431372549" d="M 1008.5 645 L 1013.5 651 L 1008.5 645 Z " /><path fill="rgb(238,53,36)" stroke="rgb(238,53,36)" stroke-width="1" opacity="0.996078431372549" d="M 1015.5 652 L 1020.5 658 L 1015.5 652 Z " /><path fill="rgb(238,53,36)" stroke="rgb(238,53,36)" stroke-width="1" opacity="0.996078431372549" d="M 1022.5 659 L 1027.5 665 L 1022.5 659 Z " /><path fill="rgb(238,53,36)" stroke="rgb(238,53,36)" stroke-width="1" opacity="0.996078431372549" d="M 1029.5 666 L 1033.5 671 L 1029.5 666 Z " /><path fill="rgb(238,53,36)" stroke="rgb(238,53,36)" stroke-width="1" opacity="0.996078431372549" d="M 1036.5 673 L 1046.5 684 L 1036.5 673 Z " /><path fill="rgb(238,53,36)" stroke="rgb(238,53,36)" stroke-width="1" opacity="0.996078431372549" d="M 1146.5 674 L 1140.5 681 L 1146.5 674 Z " /><path fill="rgb(238,53,36)" stroke="rgb(238,53,36)" stroke-width="1" opacity="0.996078431372549" d="M 418.5 675 L 412.5 682 L 418.5 675 Z " /><path fill="rgb(238,53,36)" stroke="rgb(238,53,36)" stroke-width="1" opacity="0.996078431372549" d="M 1048.5 685 L 1051.5 689 L 1048.5 685 Z " /><path fill="rgb(238,53,36)" stroke="rgb(238,53,36)" stroke-width="1" opacity="0.996078431372549" d="M 1053.5 690 L 1081.5 719 L 1053.5 690 Z " /><path fill="rgb(238,53,36)" stroke="rgb(238,53,36)" stroke-width="1" opacity="0.996078431372549" d="M 1130.5 690 L 1093.5 728 L 1130.5 690 Z " /><path fill="rgb(238,53,36)" stroke="rgb(238,53,36)" stroke-width="1" opacity="0.996078431372549" d="M 402.5 691 L 399.5 695 L 402.5 691 Z " /><path fill="rgb(238,53,36)" stroke="rgb(238,53,36)" stroke-width="1" opacity="0.996078431372549" d="M 397.5 696 L 394.5 700 L 397.5 696 Z " /><path fill="rgb(238,53,36)" stroke="rgb(238,53,36)" stroke-width="1" opacity="0.996078431372549" d="M 392.5 701 L 385.5 709 L 392.5 701 Z " /><path fill="rgb(238,53,36)" stroke="rgb(238,53,36)" stroke-width="1" opacity="0.996078431372549" d="M 383.5 710 L 378.5 716 L 383.5 710 Z " /><path fill="rgb(238,53,36)" stroke="rgb(238,53,36)" stroke-width="1" opacity="0.996078431372549" d="M 376.5 717 L 375.5 719 L 376.5 717 Z " /><path fill="rgb(238,53,36)" stroke="rgb(238,53,36)" stroke-width="1" opacity="0.996078431372549" d="M 373.5 720 L 372.5 722 L 373.5 720 Z " /><path fill="rgb(238,53,36)" stroke="rgb(238,53,36)" stroke-width="1" opacity="0.996078431372549" d="M 1083.5 720 L 1084.5 722 L 1083.5 720 Z " /><path fill="rgb(238,53,36)" stroke="rgb(238,53,36)" stroke-width="1" opacity="0.996078431372549" d="M 1086.5 723 L 1091 729 L 365 728.5 L 1090 727.5 L 1086.5 723 Z " /><path fill="rgb(238,53,36)" stroke="rgb(238,53,36)" stroke-width="1" opacity="1" d="M 366.5 0 L 1091 0.5 L 910 181.5 L 910 183 L 908.5 183 L 779 312.5 Q 779.8 314.8 777.5 314 L 762 329.5 L 762 331 L 757 334.5 Q 757.8 336.8 755.5 336 L 752 341 L 748 343.5 Q 748.8 345.8 746.5 345 L 744 349 L 740 351.5 Q 740.8 353.8 738.5 353 L 732 361 L 728.5 363 L 725 361 L 721.5 356 Q 719.3 356.8 720 354.5 L 711 346.5 L 709 343.5 L 703 338.5 L 701.5 336 Q 699.3 336.8 700 334.5 L 695 331 L 695 329.5 L 679.5 314 Q 677.3 314.8 678 312.5 L 590.5 225 L 589 225 L 589 223.5 L 573.5 208 Q 571.3 208.8 572 206.5 L 564 200 L 556.5 191 Q 554.3 191.8 555 189.5 L 547 183 L 547 181.5 L 514.5 149 Q 512.3 149.8 513 147.5 L 366.5 0 Z " /><path fill="rgb(238,53,36)" stroke="rgb(238,53,36)" stroke-width="1" opacity="1" d="M 363.5 2 L 364 726.5 L 1 364.5 L 363.5 2 Z " /><path fill="rgb(238,53,36)" stroke="rgb(238,53,36)" stroke-width="1" opacity="1" d="M 1093.5 2 L 1456 364.5 L 1093.5 727 L 1093.5 2 Z " /><path fill="rgb(238,53,36)" stroke="rgb(238,53,36)" stroke-width="1" opacity="1" d="M 728.5 365 L 744 380.5 L 744 382 L 752 388.5 Q 751.3 390.8 753.5 390 L 771.5 409 Q 773.8 408.3 773 410.5 L 779 415 L 783.5 421 Q 785.8 420.3 785 422.5 L 811 447.5 L 813 450.5 L 820 456 L 824.5 462 L 870 506.5 L 874.5 512 Q 876.8 511.3 876 513.5 L 904 540.5 L 925.5 563 Q 927.8 562.3 927 564.5 L 948 584.5 L 959.5 597 Q 961.8 596.3 961 598.5 L 969 605 L 975.5 613 Q 977.8 612.3 977 614.5 L 985 621 L 991.5 629 Q 993.8 628.3 993 630.5 L 1003 639.5 L 1006.5 644 Q 1008.8 643.3 1008 645.5 L 1015 651 L 1020.5 658 Q 1022.8 657.3 1022 659.5 L 1029 665 L 1033.5 671 L 1036 672.5 L 1046.5 684 Q 1048.8 683.3 1048 685.5 L 1053 689 L 1053 690.5 L 1081.5 719 Q 1083.8 718.3 1083 720.5 L 1086 722 L 1090 727.5 L 366.5 728 L 367.5 726 L 372.5 722 L 374 719 L 377 717.5 Q 376.3 715.3 378.5 716 L 384 709 L 393 701.5 Q 392.3 699.3 394.5 700 L 398 695 L 403 691.5 L 411.5 682 L 419 675.5 L 462.5 631 L 465.5 629 L 472 621 L 477 617.5 L 483.5 610 L 488 606.5 Q 487.3 604.3 489.5 605 L 503.5 590 Q 505.8 590.8 505 588.5 L 521 573.5 Q 520.3 571.3 522.5 572 L 530 563 L 538 556.5 Q 537.3 554.3 539.5 555 L 547 546 L 550 544.5 L 578.5 515 L 581 513.5 L 728.5 365 Z " /></svg>